# xmcd CD database file
#
# Track frame offsets:
#	150
#	17850
#	39825
#	58650
#	77550
#	94500
#	114150
#	131400
#	147675
#	176925
#	211350
#	232500
#
# Disc length: 3351 seconds
#
# Revision: 1
# Processed by: cddbd v1.5.1PL2 Copyright (c) Steve Scherf et al.
# Submitted via: freeDBTagger 0.8.2.1
#
DISCID=960d150c
DTITLE=B'z - Flash Back-B'z Early Special Titles- [CD1]
DYEAR=1997
DGENRE=rock
TTITLE0=It's not a dream
TTITLE1=LOVE and CHAIN
TTITLE2=SAFETY LOVE
TTITLE3=となりでねむらせて
TTITLE4=君の中で踊りたい
TTITLE5=LADY-GO-ROUND
TTITLE6=HURRY UP!
TTITLE7=Half Tone Lady
TTITLE8=Guitarは泣いている
TTITLE9=OUT OF THE RAIN-OFF THE LOCK STYLE-
TTITLE10=GUITAR KIDS RHAPSODY
TTITLE11=だからその手を離して
EXTD=
EXTT0=
EXTT1=
EXTT2=
EXTT3=
EXTT4=
EXTT5=
EXTT6=
EXTT7=
EXTT8=
EXTT9=
EXTT10=
EXTT11=
PLAYORDER=
